<svg width="570" height="511" viewBox="0 0 570 511" fill="none" xmlns="http://www.w3.org/2000/svg">
<mask id="mask0" mask-type="alpha" maskUnits="userSpaceOnUse" x="473" y="407" width="97" height="98">
<rect x="473.03" y="407.972" width="96.2325" height="96.2325" fill="#F45B0F"/>
</mask>
<g mask="url(#mask0)">
<path d="M378.269 407.972L474.501 504.204" stroke="#F45B0F" stroke-width="3"/>
<path d="M390.004 407.972L486.237 504.204" stroke="#F45B0F" stroke-width="3"/>
<path d="M401.74 407.972L497.972 504.204" stroke="#F45B0F" stroke-width="3"/>
<path d="M413.476 407.972L509.708 504.204" stroke="#F45B0F" stroke-width="3"/>
<path d="M425.211 407.972L521.444 504.204" stroke="#F45B0F" stroke-width="3"/>
<path d="M436.947 407.972L533.18 504.204" stroke="#F45B0F" stroke-width="3"/>
<path d="M448.683 407.972L544.915 504.204" stroke="#F45B0F" stroke-width="3"/>
<path d="M460.418 407.972L556.651 504.204" stroke="#F45B0F" stroke-width="3"/>
<path d="M472.154 407.972L568.387 504.204" stroke="#F45B0F" stroke-width="3"/>
</g>
<g opacity="0.5">
<rect x="119.274" y="103.01" width="6.77694" height="6.77694" fill="#F26818"/>
<rect x="134.183" y="103.01" width="6.77694" height="6.77694" fill="#F26818"/>
<rect x="149.093" y="103.01" width="6.77694" height="6.77694" fill="#F26818"/>
<rect x="164.002" y="103.01" width="6.77694" height="6.77694" fill="#F26818"/>
<rect x="178.911" y="103.01" width="6.77694" height="6.77694" fill="#F26818"/>
<rect x="193.82" y="103.01" width="6.77694" height="6.77694" fill="#F26818"/>
<rect x="208.73" y="103.01" width="6.77694" height="6.77694" fill="#F26818"/>
<rect x="223.639" y="103.01" width="6.77694" height="6.77694" fill="#F26818"/>
<rect x="238.548" y="103.01" width="6.77694" height="6.77694" fill="#F26818"/>
<rect x="253.457" y="103.01" width="6.77694" height="6.77694" fill="#F26818"/>
<rect x="268.367" y="103.01" width="6.77694" height="6.77694" fill="#F26818"/>
<rect x="283.276" y="103.01" width="6.77694" height="6.77694" fill="#F26818"/>
<rect x="298.185" y="103.01" width="6.77694" height="6.77694" fill="#F26818"/>
<rect x="313.095" y="103.01" width="6.77694" height="6.77694" fill="#F26818"/>
<rect x="328.004" y="103.01" width="6.77694" height="6.77694" fill="#F26818"/>
<rect x="342.913" y="103.01" width="6.77694" height="6.77694" fill="#F26818"/>
<rect x="357.822" y="103.01" width="6.77694" height="6.77694" fill="#F26818"/>
<rect x="372.732" y="103.01" width="6.77694" height="6.77694" fill="#F26818"/>
<rect x="387.641" y="103.01" width="6.77694" height="6.77694" fill="#F26818"/>
<rect x="402.55" y="103.01" width="6.77694" height="6.77694" fill="#F26818"/>
<rect x="417.459" y="103.01" width="6.77694" height="6.77694" fill="#F26818"/>
<rect x="432.369" y="103.01" width="6.77694" height="6.77694" fill="#F26818"/>
<rect x="447.278" y="103.01" width="6.77694" height="6.77694" fill="#F26818"/>
<rect x="462.187" y="103.01" width="6.77694" height="6.77694" fill="#F26818"/>
<rect x="477.096" y="103.01" width="6.77694" height="6.77694" fill="#F26818"/>
<rect x="119.274" y="117.919" width="6.77694" height="6.77694" fill="#F26818"/>
<rect x="134.183" y="117.919" width="6.77694" height="6.77694" fill="#F26818"/>
<rect x="149.093" y="117.919" width="6.77694" height="6.77694" fill="#F26818"/>
<rect x="164.002" y="117.919" width="6.77694" height="6.77694" fill="#F26818"/>
<rect x="178.911" y="117.919" width="6.77694" height="6.77694" fill="#F26818"/>
<rect x="193.82" y="117.919" width="6.77694" height="6.77694" fill="#F26818"/>
<rect x="208.73" y="117.919" width="6.77694" height="6.77694" fill="#F26818"/>
<rect x="223.639" y="117.919" width="6.77694" height="6.77694" fill="#F26818"/>
<rect x="238.548" y="117.919" width="6.77694" height="6.77694" fill="#F26818"/>
<rect x="253.457" y="117.919" width="6.77694" height="6.77694" fill="#F26818"/>
<rect x="268.367" y="117.919" width="6.77694" height="6.77694" fill="#F26818"/>
<rect x="283.276" y="117.919" width="6.77694" height="6.77694" fill="#F26818"/>
<rect x="298.185" y="117.919" width="6.77694" height="6.77694" fill="#F26818"/>
<rect x="313.095" y="117.919" width="6.77694" height="6.77694" fill="#F26818"/>
<rect x="328.004" y="117.919" width="6.77694" height="6.77694" fill="#F26818"/>
<rect x="342.913" y="117.919" width="6.77694" height="6.77694" fill="#F26818"/>
<rect x="357.822" y="117.919" width="6.77694" height="6.77694" fill="#F26818"/>
<rect x="372.732" y="117.919" width="6.77694" height="6.77694" fill="#F26818"/>
<rect x="387.641" y="117.919" width="6.77694" height="6.77694" fill="#F26818"/>
<rect x="402.55" y="117.919" width="6.77694" height="6.77694" fill="#F26818"/>
<rect x="417.459" y="117.919" width="6.77694" height="6.77694" fill="#F26818"/>
<rect x="432.369" y="117.919" width="6.77694" height="6.77694" fill="#F26818"/>
<rect x="447.278" y="117.919" width="6.77694" height="6.77694" fill="#F26818"/>
<rect x="462.187" y="117.919" width="6.77694" height="6.77694" fill="#F26818"/>
<rect x="477.096" y="117.919" width="6.77694" height="6.77694" fill="#F26818"/>
<rect x="119.274" y="132.828" width="6.77694" height="6.77694" fill="#F26818"/>
<rect x="134.183" y="132.828" width="6.77694" height="6.77694" fill="#F26818"/>
<rect x="149.093" y="132.828" width="6.77694" height="6.77694" fill="#F26818"/>
<rect x="164.002" y="132.828" width="6.77694" height="6.77694" fill="#F26818"/>
<rect x="178.911" y="132.828" width="6.77694" height="6.77694" fill="#F26818"/>
<rect x="193.82" y="132.828" width="6.77694" height="6.77694" fill="#F26818"/>
<rect x="208.73" y="132.828" width="6.77694" height="6.77694" fill="#F26818"/>
<rect x="223.639" y="132.828" width="6.77694" height="6.77694" fill="#F26818"/>
<rect x="238.548" y="132.828" width="6.77694" height="6.77694" fill="#F26818"/>
<rect x="253.457" y="132.828" width="6.77694" height="6.77694" fill="#F26818"/>
<rect x="268.367" y="132.828" width="6.77694" height="6.77694" fill="#F26818"/>
<rect x="283.276" y="132.828" width="6.77694" height="6.77694" fill="#F26818"/>
<rect x="298.185" y="132.828" width="6.77694" height="6.77694" fill="#F26818"/>
<rect x="313.095" y="132.828" width="6.77694" height="6.77694" fill="#F26818"/>
<rect x="328.004" y="132.828" width="6.77694" height="6.77694" fill="#F26818"/>
<rect x="342.913" y="132.828" width="6.77694" height="6.77694" fill="#F26818"/>
<rect x="357.822" y="132.828" width="6.77694" height="6.77694" fill="#F26818"/>
<rect x="372.732" y="132.828" width="6.77694" height="6.77694" fill="#F26818"/>
<rect x="387.641" y="132.828" width="6.77694" height="6.77694" fill="#F26818"/>
<rect x="402.55" y="132.828" width="6.77694" height="6.77694" fill="#F26818"/>
<rect x="417.459" y="132.828" width="6.77694" height="6.77694" fill="#F26818"/>
<rect x="432.369" y="132.828" width="6.77694" height="6.77694" fill="#F26818"/>
<rect x="447.278" y="132.828" width="6.77694" height="6.77694" fill="#F26818"/>
<rect x="462.187" y="132.828" width="6.77694" height="6.77694" fill="#F26818"/>
<rect x="477.096" y="132.828" width="6.77694" height="6.77694" fill="#F26818"/>
<rect x="119.274" y="147.737" width="6.77694" height="6.77694" fill="#F26818"/>
<rect x="134.183" y="147.737" width="6.77694" height="6.77694" fill="#F26818"/>
<rect x="149.093" y="147.737" width="6.77694" height="6.77694" fill="#F26818"/>
<rect x="164.002" y="147.737" width="6.77694" height="6.77694" fill="#F26818"/>
<rect x="178.911" y="147.737" width="6.77694" height="6.77694" fill="#F26818"/>
<rect x="193.82" y="147.737" width="6.77694" height="6.77694" fill="#F26818"/>
<rect x="208.73" y="147.737" width="6.77694" height="6.77694" fill="#F26818"/>
<rect x="223.639" y="147.737" width="6.77694" height="6.77694" fill="#F26818"/>
<rect x="238.548" y="147.737" width="6.77694" height="6.77694" fill="#F26818"/>
<rect x="253.457" y="147.737" width="6.77694" height="6.77694" fill="#F26818"/>
<rect x="268.367" y="147.737" width="6.77694" height="6.77694" fill="#F26818"/>
<rect x="283.276" y="147.737" width="6.77694" height="6.77694" fill="#F26818"/>
<rect x="298.185" y="147.737" width="6.77694" height="6.77694" fill="#F26818"/>
<rect x="313.095" y="147.737" width="6.77694" height="6.77694" fill="#F26818"/>
<rect x="328.004" y="147.737" width="6.77694" height="6.77694" fill="#F26818"/>
<rect x="342.913" y="147.737" width="6.77694" height="6.77694" fill="#F26818"/>
<rect x="357.822" y="147.737" width="6.77694" height="6.77694" fill="#F26818"/>
<rect x="372.732" y="147.737" width="6.77694" height="6.77694" fill="#F26818"/>
<rect x="387.641" y="147.737" width="6.77694" height="6.77694" fill="#F26818"/>
<rect x="402.55" y="147.737" width="6.77694" height="6.77694" fill="#F26818"/>
<rect x="417.459" y="147.737" width="6.77694" height="6.77694" fill="#F26818"/>
<rect x="432.369" y="147.737" width="6.77694" height="6.77694" fill="#F26818"/>
<rect x="447.278" y="147.737" width="6.77694" height="6.77694" fill="#F26818"/>
<rect x="462.187" y="147.737" width="6.77694" height="6.77694" fill="#F26818"/>
<rect x="477.096" y="147.737" width="6.77694" height="6.77694" fill="#F26818"/>
<rect x="119.274" y="162.646" width="6.77694" height="6.77694" fill="#F26818"/>
<rect x="134.183" y="162.646" width="6.77694" height="6.77694" fill="#F26818"/>
<rect x="149.093" y="162.646" width="6.77694" height="6.77694" fill="#F26818"/>
<rect x="164.002" y="162.646" width="6.77694" height="6.77694" fill="#F26818"/>
<rect x="178.911" y="162.646" width="6.77694" height="6.77694" fill="#F26818"/>
<rect x="193.82" y="162.646" width="6.77694" height="6.77694" fill="#F26818"/>
<rect x="208.73" y="162.646" width="6.77694" height="6.77694" fill="#F26818"/>
<rect x="223.639" y="162.646" width="6.77694" height="6.77694" fill="#F26818"/>
<rect x="238.548" y="162.646" width="6.77694" height="6.77694" fill="#F26818"/>
<rect x="253.457" y="162.646" width="6.77694" height="6.77694" fill="#F26818"/>
<rect x="268.367" y="162.646" width="6.77694" height="6.77694" fill="#F26818"/>
<rect x="283.276" y="162.646" width="6.77694" height="6.77694" fill="#F26818"/>
<rect x="298.185" y="162.646" width="6.77694" height="6.77694" fill="#F26818"/>
<rect x="313.095" y="162.646" width="6.77694" height="6.77694" fill="#F26818"/>
<rect x="328.004" y="162.646" width="6.77694" height="6.77694" fill="#F26818"/>
<rect x="342.913" y="162.646" width="6.77694" height="6.77694" fill="#F26818"/>
<rect x="357.822" y="162.646" width="6.77694" height="6.77694" fill="#F26818"/>
<rect x="372.732" y="162.646" width="6.77694" height="6.77694" fill="#F26818"/>
<rect x="387.641" y="162.646" width="6.77694" height="6.77694" fill="#F26818"/>
<rect x="402.55" y="162.646" width="6.77694" height="6.77694" fill="#F26818"/>
<rect x="417.459" y="162.646" width="6.77694" height="6.77694" fill="#F26818"/>
<rect x="432.369" y="162.646" width="6.77694" height="6.77694" fill="#F26818"/>
<rect x="447.278" y="162.646" width="6.77694" height="6.77694" fill="#F26818"/>
<rect x="462.187" y="162.646" width="6.77694" height="6.77694" fill="#F26818"/>
<rect x="477.096" y="162.646" width="6.77694" height="6.77694" fill="#F26818"/>
<rect x="119.274" y="177.556" width="6.77694" height="6.77694" fill="#F26818"/>
<rect x="134.183" y="177.556" width="6.77694" height="6.77694" fill="#F26818"/>
<rect x="149.093" y="177.556" width="6.77694" height="6.77694" fill="#F26818"/>
<rect x="164.002" y="177.556" width="6.77694" height="6.77694" fill="#F26818"/>
<rect x="178.911" y="177.556" width="6.77694" height="6.77694" fill="#F26818"/>
<rect x="193.82" y="177.556" width="6.77694" height="6.77694" fill="#F26818"/>
<rect x="208.73" y="177.556" width="6.77694" height="6.77694" fill="#F26818"/>
<rect x="223.639" y="177.556" width="6.77694" height="6.77694" fill="#F26818"/>
<rect x="238.548" y="177.556" width="6.77694" height="6.77694" fill="#F26818"/>
<rect x="253.457" y="177.556" width="6.77694" height="6.77694" fill="#F26818"/>
<rect x="268.367" y="177.556" width="6.77694" height="6.77694" fill="#F26818"/>
<rect x="283.276" y="177.556" width="6.77694" height="6.77694" fill="#F26818"/>
<rect x="298.185" y="177.556" width="6.77694" height="6.77694" fill="#F26818"/>
<rect x="313.095" y="177.556" width="6.77694" height="6.77694" fill="#F26818"/>
<rect x="328.004" y="177.556" width="6.77694" height="6.77694" fill="#F26818"/>
<rect x="342.913" y="177.556" width="6.77694" height="6.77694" fill="#F26818"/>
<rect x="357.822" y="177.556" width="6.77694" height="6.77694" fill="#F26818"/>
<rect x="372.732" y="177.556" width="6.77694" height="6.77694" fill="#F26818"/>
<rect x="387.641" y="177.556" width="6.77694" height="6.77694" fill="#F26818"/>
<rect x="402.55" y="177.556" width="6.77694" height="6.77694" fill="#F26818"/>
<rect x="417.459" y="177.556" width="6.77694" height="6.77694" fill="#F26818"/>
<rect x="432.369" y="177.556" width="6.77694" height="6.77694" fill="#F26818"/>
<rect x="447.278" y="177.556" width="6.77694" height="6.77694" fill="#F26818"/>
<rect x="462.187" y="177.556" width="6.77694" height="6.77694" fill="#F26818"/>
<rect x="477.096" y="177.556" width="6.77694" height="6.77694" fill="#F26818"/>
<rect x="119.274" y="192.465" width="6.77694" height="6.77694" fill="#F26818"/>
<rect x="134.183" y="192.465" width="6.77694" height="6.77694" fill="#F26818"/>
<rect x="149.093" y="192.465" width="6.77694" height="6.77694" fill="#F26818"/>
<rect x="164.002" y="192.465" width="6.77694" height="6.77694" fill="#F26818"/>
<rect x="178.911" y="192.465" width="6.77694" height="6.77694" fill="#F26818"/>
<rect x="193.82" y="192.465" width="6.77694" height="6.77694" fill="#F26818"/>
<rect x="208.73" y="192.465" width="6.77694" height="6.77694" fill="#F26818"/>
<rect x="223.639" y="192.465" width="6.77694" height="6.77694" fill="#F26818"/>
<rect x="238.548" y="192.465" width="6.77694" height="6.77694" fill="#F26818"/>
<rect x="253.457" y="192.465" width="6.77694" height="6.77694" fill="#F26818"/>
<rect x="268.367" y="192.465" width="6.77694" height="6.77694" fill="#F26818"/>
<rect x="283.276" y="192.465" width="6.77694" height="6.77694" fill="#F26818"/>
<rect x="298.185" y="192.465" width="6.77694" height="6.77694" fill="#F26818"/>
<rect x="313.095" y="192.465" width="6.77694" height="6.77694" fill="#F26818"/>
<rect x="328.004" y="192.465" width="6.77694" height="6.77694" fill="#F26818"/>
<rect x="342.913" y="192.465" width="6.77694" height="6.77694" fill="#F26818"/>
<rect x="357.822" y="192.465" width="6.77694" height="6.77694" fill="#F26818"/>
<rect x="372.732" y="192.465" width="6.77694" height="6.77694" fill="#F26818"/>
<rect x="387.641" y="192.465" width="6.77694" height="6.77694" fill="#F26818"/>
<rect x="402.55" y="192.465" width="6.77694" height="6.77694" fill="#F26818"/>
<rect x="417.459" y="192.465" width="6.77694" height="6.77694" fill="#F26818"/>
<rect x="432.369" y="192.465" width="6.77694" height="6.77694" fill="#F26818"/>
<rect x="447.278" y="192.465" width="6.77694" height="6.77694" fill="#F26818"/>
<rect x="462.187" y="192.465" width="6.77694" height="6.77694" fill="#F26818"/>
<rect x="477.096" y="192.465" width="6.77694" height="6.77694" fill="#F26818"/>
<rect x="119.274" y="207.374" width="6.77694" height="6.77694" fill="#F26818"/>
<rect x="134.183" y="207.374" width="6.77694" height="6.77694" fill="#F26818"/>
<rect x="149.093" y="207.374" width="6.77694" height="6.77694" fill="#F26818"/>
<rect x="164.002" y="207.374" width="6.77694" height="6.77694" fill="#F26818"/>
<rect x="178.911" y="207.374" width="6.77694" height="6.77694" fill="#F26818"/>
<rect x="193.82" y="207.374" width="6.77694" height="6.77694" fill="#F26818"/>
<rect x="208.73" y="207.374" width="6.77694" height="6.77694" fill="#F26818"/>
<rect x="223.639" y="207.374" width="6.77694" height="6.77694" fill="#F26818"/>
<rect x="238.548" y="207.374" width="6.77694" height="6.77694" fill="#F26818"/>
<rect x="253.457" y="207.374" width="6.77694" height="6.77694" fill="#F26818"/>
<rect x="268.367" y="207.374" width="6.77694" height="6.77694" fill="#F26818"/>
<rect x="283.276" y="207.374" width="6.77694" height="6.77694" fill="#F26818"/>
<rect x="298.185" y="207.374" width="6.77694" height="6.77694" fill="#F26818"/>
<rect x="313.095" y="207.374" width="6.77694" height="6.77694" fill="#F26818"/>
<rect x="328.004" y="207.374" width="6.77694" height="6.77694" fill="#F26818"/>
<rect x="342.913" y="207.374" width="6.77694" height="6.77694" fill="#F26818"/>
<rect x="357.822" y="207.374" width="6.77694" height="6.77694" fill="#F26818"/>
<rect x="372.732" y="207.374" width="6.77694" height="6.77694" fill="#F26818"/>
<rect x="387.641" y="207.374" width="6.77694" height="6.77694" fill="#F26818"/>
<rect x="402.55" y="207.374" width="6.77694" height="6.77694" fill="#F26818"/>
<rect x="417.459" y="207.374" width="6.77694" height="6.77694" fill="#F26818"/>
<rect x="432.369" y="207.374" width="6.77694" height="6.77694" fill="#F26818"/>
<rect x="447.278" y="207.374" width="6.77694" height="6.77694" fill="#F26818"/>
<rect x="462.187" y="207.374" width="6.77694" height="6.77694" fill="#F26818"/>
<rect x="477.096" y="207.374" width="6.77694" height="6.77694" fill="#F26818"/>
<rect x="119.274" y="222.284" width="6.77694" height="6.77694" fill="#F26818"/>
<rect x="134.183" y="222.284" width="6.77694" height="6.77694" fill="#F26818"/>
<rect x="149.093" y="222.284" width="6.77694" height="6.77694" fill="#F26818"/>
<rect x="164.002" y="222.284" width="6.77694" height="6.77694" fill="#F26818"/>
<rect x="178.911" y="222.284" width="6.77694" height="6.77694" fill="#F26818"/>
<rect x="193.82" y="222.284" width="6.77694" height="6.77694" fill="#F26818"/>
<rect x="208.73" y="222.284" width="6.77694" height="6.77694" fill="#F26818"/>
<rect x="223.639" y="222.284" width="6.77694" height="6.77694" fill="#F26818"/>
<rect x="238.548" y="222.284" width="6.77694" height="6.77694" fill="#F26818"/>
<rect x="253.457" y="222.284" width="6.77694" height="6.77694" fill="#F26818"/>
<rect x="268.367" y="222.284" width="6.77694" height="6.77694" fill="#F26818"/>
<rect x="283.276" y="222.284" width="6.77694" height="6.77694" fill="#F26818"/>
<rect x="298.185" y="222.284" width="6.77694" height="6.77694" fill="#F26818"/>
<rect x="313.095" y="222.284" width="6.77694" height="6.77694" fill="#F26818"/>
<rect x="328.004" y="222.284" width="6.77694" height="6.77694" fill="#F26818"/>
<rect x="342.913" y="222.284" width="6.77694" height="6.77694" fill="#F26818"/>
<rect x="357.822" y="222.284" width="6.77694" height="6.77694" fill="#F26818"/>
<rect x="372.732" y="222.284" width="6.77694" height="6.77694" fill="#F26818"/>
<rect x="387.641" y="222.284" width="6.77694" height="6.77694" fill="#F26818"/>
<rect x="402.55" y="222.284" width="6.77694" height="6.77694" fill="#F26818"/>
<rect x="417.459" y="222.284" width="6.77694" height="6.77694" fill="#F26818"/>
<rect x="432.369" y="222.284" width="6.77694" height="6.77694" fill="#F26818"/>
<rect x="447.278" y="222.284" width="6.77694" height="6.77694" fill="#F26818"/>
<rect x="462.187" y="222.284" width="6.77694" height="6.77694" fill="#F26818"/>
<rect x="477.096" y="222.284" width="6.77694" height="6.77694" fill="#F26818"/>
<rect x="119.274" y="237.193" width="6.77694" height="6.77694" fill="#F26818"/>
<rect x="134.183" y="237.193" width="6.77694" height="6.77694" fill="#F26818"/>
<rect x="149.093" y="237.193" width="6.77694" height="6.77694" fill="#F26818"/>
<rect x="164.002" y="237.193" width="6.77694" height="6.77694" fill="#F26818"/>
<rect x="178.911" y="237.193" width="6.77694" height="6.77694" fill="#F26818"/>
<rect x="193.82" y="237.193" width="6.77694" height="6.77694" fill="#F26818"/>
<rect x="208.73" y="237.193" width="6.77694" height="6.77694" fill="#F26818"/>
<rect x="223.639" y="237.193" width="6.77694" height="6.77694" fill="#F26818"/>
<rect x="238.548" y="237.193" width="6.77694" height="6.77694" fill="#F26818"/>
<rect x="253.457" y="237.193" width="6.77694" height="6.77694" fill="#F26818"/>
<rect x="268.367" y="237.193" width="6.77694" height="6.77694" fill="#F26818"/>
<rect x="283.276" y="237.193" width="6.77694" height="6.77694" fill="#F26818"/>
<rect x="298.185" y="237.193" width="6.77694" height="6.77694" fill="#F26818"/>
<rect x="313.095" y="237.193" width="6.77694" height="6.77694" fill="#F26818"/>
<rect x="328.004" y="237.193" width="6.77694" height="6.77694" fill="#F26818"/>
<rect x="342.913" y="237.193" width="6.77694" height="6.77694" fill="#F26818"/>
<rect x="357.822" y="237.193" width="6.77694" height="6.77694" fill="#F26818"/>
<rect x="372.732" y="237.193" width="6.77694" height="6.77694" fill="#F26818"/>
<rect x="387.641" y="237.193" width="6.77694" height="6.77694" fill="#F26818"/>
<rect x="402.55" y="237.193" width="6.77694" height="6.77694" fill="#F26818"/>
<rect x="417.459" y="237.193" width="6.77694" height="6.77694" fill="#F26818"/>
<rect x="432.369" y="237.193" width="6.77694" height="6.77694" fill="#F26818"/>
<rect x="447.278" y="237.193" width="6.77694" height="6.77694" fill="#F26818"/>
<rect x="462.187" y="237.193" width="6.77694" height="6.77694" fill="#F26818"/>
<rect x="477.096" y="237.193" width="6.77694" height="6.77694" fill="#F26818"/>
<rect x="119.274" y="252.102" width="6.77694" height="6.77694" fill="#F26818"/>
<rect x="134.183" y="252.102" width="6.77694" height="6.77694" fill="#F26818"/>
<rect x="149.093" y="252.102" width="6.77694" height="6.77694" fill="#F26818"/>
<rect x="164.002" y="252.102" width="6.77694" height="6.77694" fill="#F26818"/>
<rect x="178.911" y="252.102" width="6.77694" height="6.77694" fill="#F26818"/>
<rect x="193.82" y="252.102" width="6.77694" height="6.77694" fill="#F26818"/>
<rect x="208.73" y="252.102" width="6.77694" height="6.77694" fill="#F26818"/>
<rect x="223.639" y="252.102" width="6.77694" height="6.77694" fill="#F26818"/>
<rect x="238.548" y="252.102" width="6.77694" height="6.77694" fill="#F26818"/>
<rect x="253.457" y="252.102" width="6.77694" height="6.77694" fill="#F26818"/>
<rect x="268.367" y="252.102" width="6.77694" height="6.77694" fill="#F26818"/>
<rect x="283.276" y="252.102" width="6.77694" height="6.77694" fill="#F26818"/>
<rect x="298.185" y="252.102" width="6.77694" height="6.77694" fill="#F26818"/>
<rect x="313.095" y="252.102" width="6.77694" height="6.77694" fill="#F26818"/>
<rect x="328.004" y="252.102" width="6.77694" height="6.77694" fill="#F26818"/>
<rect x="342.913" y="252.102" width="6.77694" height="6.77694" fill="#F26818"/>
<rect x="357.822" y="252.102" width="6.77694" height="6.77694" fill="#F26818"/>
<rect x="372.732" y="252.102" width="6.77694" height="6.77694" fill="#F26818"/>
<rect x="387.641" y="252.102" width="6.77694" height="6.77694" fill="#F26818"/>
<rect x="402.55" y="252.102" width="6.77694" height="6.77694" fill="#F26818"/>
<rect x="417.459" y="252.102" width="6.77694" height="6.77694" fill="#F26818"/>
<rect x="432.369" y="252.102" width="6.77694" height="6.77694" fill="#F26818"/>
<rect x="447.278" y="252.102" width="6.77694" height="6.77694" fill="#F26818"/>
<rect x="462.187" y="252.102" width="6.77694" height="6.77694" fill="#F26818"/>
<rect x="477.096" y="252.102" width="6.77694" height="6.77694" fill="#F26818"/>
<rect x="119.274" y="267.011" width="6.77694" height="6.77694" fill="#F26818"/>
<rect x="134.183" y="267.011" width="6.77694" height="6.77694" fill="#F26818"/>
<rect x="149.093" y="267.011" width="6.77694" height="6.77694" fill="#F26818"/>
<rect x="164.002" y="267.011" width="6.77694" height="6.77694" fill="#F26818"/>
<rect x="178.911" y="267.011" width="6.77694" height="6.77694" fill="#F26818"/>
<rect x="193.82" y="267.011" width="6.77694" height="6.77694" fill="#F26818"/>
<rect x="208.73" y="267.011" width="6.77694" height="6.77694" fill="#F26818"/>
<rect x="223.639" y="267.011" width="6.77694" height="6.77694" fill="#F26818"/>
<rect x="238.548" y="267.011" width="6.77694" height="6.77694" fill="#F26818"/>
<rect x="253.457" y="267.011" width="6.77694" height="6.77694" fill="#F26818"/>
<rect x="268.367" y="267.011" width="6.77694" height="6.77694" fill="#F26818"/>
<rect x="283.276" y="267.011" width="6.77694" height="6.77694" fill="#F26818"/>
<rect x="298.185" y="267.011" width="6.77694" height="6.77694" fill="#F26818"/>
<rect x="313.095" y="267.011" width="6.77694" height="6.77694" fill="#F26818"/>
<rect x="328.004" y="267.011" width="6.77694" height="6.77694" fill="#F26818"/>
<rect x="342.913" y="267.011" width="6.77694" height="6.77694" fill="#F26818"/>
<rect x="357.822" y="267.011" width="6.77694" height="6.77694" fill="#F26818"/>
<rect x="372.732" y="267.011" width="6.77694" height="6.77694" fill="#F26818"/>
<rect x="387.641" y="267.011" width="6.77694" height="6.77694" fill="#F26818"/>
<rect x="402.55" y="267.011" width="6.77694" height="6.77694" fill="#F26818"/>
<rect x="417.459" y="267.011" width="6.77694" height="6.77694" fill="#F26818"/>
<rect x="432.369" y="267.011" width="6.77694" height="6.77694" fill="#F26818"/>
<rect x="447.278" y="267.011" width="6.77694" height="6.77694" fill="#F26818"/>
<rect x="462.187" y="267.011" width="6.77694" height="6.77694" fill="#F26818"/>
<rect x="477.096" y="267.011" width="6.77694" height="6.77694" fill="#F26818"/>
<rect x="119.274" y="281.921" width="6.77694" height="6.77694" fill="#F26818"/>
<rect x="134.183" y="281.921" width="6.77694" height="6.77694" fill="#F26818"/>
<rect x="149.093" y="281.921" width="6.77694" height="6.77694" fill="#F26818"/>
<rect x="164.002" y="281.921" width="6.77694" height="6.77694" fill="#F26818"/>
<rect x="178.911" y="281.921" width="6.77694" height="6.77694" fill="#F26818"/>
<rect x="193.82" y="281.921" width="6.77694" height="6.77694" fill="#F26818"/>
<rect x="208.73" y="281.921" width="6.77694" height="6.77694" fill="#F26818"/>
<rect x="223.639" y="281.921" width="6.77694" height="6.77694" fill="#F26818"/>
<rect x="238.548" y="281.921" width="6.77694" height="6.77694" fill="#F26818"/>
<rect x="253.457" y="281.921" width="6.77694" height="6.77694" fill="#F26818"/>
<rect x="268.367" y="281.921" width="6.77694" height="6.77694" fill="#F26818"/>
<rect x="283.276" y="281.921" width="6.77694" height="6.77694" fill="#F26818"/>
<rect x="298.185" y="281.921" width="6.77694" height="6.77694" fill="#F26818"/>
<rect x="313.095" y="281.921" width="6.77694" height="6.77694" fill="#F26818"/>
<rect x="328.004" y="281.921" width="6.77694" height="6.77694" fill="#F26818"/>
<rect x="342.913" y="281.921" width="6.77694" height="6.77694" fill="#F26818"/>
<rect x="357.822" y="281.921" width="6.77694" height="6.77694" fill="#F26818"/>
<rect x="372.732" y="281.921" width="6.77694" height="6.77694" fill="#F26818"/>
<rect x="387.641" y="281.921" width="6.77694" height="6.77694" fill="#F26818"/>
<rect x="402.55" y="281.921" width="6.77694" height="6.77694" fill="#F26818"/>
<rect x="417.459" y="281.921" width="6.77694" height="6.77694" fill="#F26818"/>
<rect x="432.369" y="281.921" width="6.77694" height="6.77694" fill="#F26818"/>
<rect x="447.278" y="281.921" width="6.77694" height="6.77694" fill="#F26818"/>
<rect x="462.187" y="281.921" width="6.77694" height="6.77694" fill="#F26818"/>
<rect x="477.096" y="281.921" width="6.77694" height="6.77694" fill="#F26818"/>
<rect x="119.274" y="296.83" width="6.77694" height="6.77694" fill="#F26818"/>
<rect x="134.183" y="296.83" width="6.77694" height="6.77694" fill="#F26818"/>
<rect x="149.093" y="296.83" width="6.77694" height="6.77694" fill="#F26818"/>
<rect x="164.002" y="296.83" width="6.77694" height="6.77694" fill="#F26818"/>
<rect x="178.911" y="296.83" width="6.77694" height="6.77694" fill="#F26818"/>
<rect x="193.82" y="296.83" width="6.77694" height="6.77694" fill="#F26818"/>
<rect x="208.73" y="296.83" width="6.77694" height="6.77694" fill="#F26818"/>
<rect x="223.639" y="296.83" width="6.77694" height="6.77694" fill="#F26818"/>
<rect x="238.548" y="296.83" width="6.77694" height="6.77694" fill="#F26818"/>
<rect x="253.457" y="296.83" width="6.77694" height="6.77694" fill="#F26818"/>
<rect x="268.367" y="296.83" width="6.77694" height="6.77694" fill="#F26818"/>
<rect x="283.276" y="296.83" width="6.77694" height="6.77694" fill="#F26818"/>
<rect x="298.185" y="296.83" width="6.77694" height="6.77694" fill="#F26818"/>
<rect x="313.095" y="296.83" width="6.77694" height="6.77694" fill="#F26818"/>
<rect x="328.004" y="296.83" width="6.77694" height="6.77694" fill="#F26818"/>
<rect x="342.913" y="296.83" width="6.77694" height="6.77694" fill="#F26818"/>
<rect x="357.822" y="296.83" width="6.77694" height="6.77694" fill="#F26818"/>
<rect x="372.732" y="296.83" width="6.77694" height="6.77694" fill="#F26818"/>
<rect x="387.641" y="296.83" width="6.77694" height="6.77694" fill="#F26818"/>
<rect x="402.55" y="296.83" width="6.77694" height="6.77694" fill="#F26818"/>
<rect x="417.459" y="296.83" width="6.77694" height="6.77694" fill="#F26818"/>
<rect x="432.369" y="296.83" width="6.77694" height="6.77694" fill="#F26818"/>
<rect x="447.278" y="296.83" width="6.77694" height="6.77694" fill="#F26818"/>
<rect x="462.187" y="296.83" width="6.77694" height="6.77694" fill="#F26818"/>
<rect x="477.096" y="296.83" width="6.77694" height="6.77694" fill="#F26818"/>
<rect x="119.274" y="311.739" width="6.77694" height="6.77694" fill="#F26818"/>
<rect x="134.183" y="311.739" width="6.77694" height="6.77694" fill="#F26818"/>
<rect x="149.093" y="311.739" width="6.77694" height="6.77694" fill="#F26818"/>
<rect x="164.002" y="311.739" width="6.77694" height="6.77694" fill="#F26818"/>
<rect x="178.911" y="311.739" width="6.77694" height="6.77694" fill="#F26818"/>
<rect x="193.82" y="311.739" width="6.77694" height="6.77694" fill="#F26818"/>
<rect x="208.73" y="311.739" width="6.77694" height="6.77694" fill="#F26818"/>
<rect x="223.639" y="311.739" width="6.77694" height="6.77694" fill="#F26818"/>
<rect x="238.548" y="311.739" width="6.77694" height="6.77694" fill="#F26818"/>
<rect x="253.457" y="311.739" width="6.77694" height="6.77694" fill="#F26818"/>
<rect x="268.367" y="311.739" width="6.77694" height="6.77694" fill="#F26818"/>
<rect x="283.276" y="311.739" width="6.77694" height="6.77694" fill="#F26818"/>
<rect x="298.185" y="311.739" width="6.77694" height="6.77694" fill="#F26818"/>
<rect x="313.095" y="311.739" width="6.77694" height="6.77694" fill="#F26818"/>
<rect x="328.004" y="311.739" width="6.77694" height="6.77694" fill="#F26818"/>
<rect x="342.913" y="311.739" width="6.77694" height="6.77694" fill="#F26818"/>
<rect x="357.822" y="311.739" width="6.77694" height="6.77694" fill="#F26818"/>
<rect x="372.732" y="311.739" width="6.77694" height="6.77694" fill="#F26818"/>
<rect x="387.641" y="311.739" width="6.77694" height="6.77694" fill="#F26818"/>
<rect x="402.55" y="311.739" width="6.77694" height="6.77694" fill="#F26818"/>
<rect x="417.459" y="311.739" width="6.77694" height="6.77694" fill="#F26818"/>
<rect x="432.369" y="311.739" width="6.77694" height="6.77694" fill="#F26818"/>
<rect x="447.278" y="311.739" width="6.77694" height="6.77694" fill="#F26818"/>
<rect x="462.187" y="311.739" width="6.77694" height="6.77694" fill="#F26818"/>
<rect x="477.096" y="311.739" width="6.77694" height="6.77694" fill="#F26818"/>
<rect x="119.274" y="326.648" width="6.77694" height="6.77694" fill="#F26818"/>
<rect x="134.183" y="326.648" width="6.77694" height="6.77694" fill="#F26818"/>
<rect x="149.093" y="326.648" width="6.77694" height="6.77694" fill="#F26818"/>
<rect x="164.002" y="326.648" width="6.77694" height="6.77694" fill="#F26818"/>
<rect x="178.911" y="326.648" width="6.77694" height="6.77694" fill="#F26818"/>
<rect x="193.82" y="326.648" width="6.77694" height="6.77694" fill="#F26818"/>
<rect x="208.73" y="326.648" width="6.77694" height="6.77694" fill="#F26818"/>
<rect x="223.639" y="326.648" width="6.77694" height="6.77694" fill="#F26818"/>
<rect x="238.548" y="326.648" width="6.77694" height="6.77694" fill="#F26818"/>
<rect x="253.457" y="326.648" width="6.77694" height="6.77694" fill="#F26818"/>
<rect x="268.367" y="326.648" width="6.77694" height="6.77694" fill="#F26818"/>
<rect x="283.276" y="326.648" width="6.77694" height="6.77694" fill="#F26818"/>
<rect x="298.185" y="326.648" width="6.77694" height="6.77694" fill="#F26818"/>
<rect x="313.095" y="326.648" width="6.77694" height="6.77694" fill="#F26818"/>
<rect x="328.004" y="326.648" width="6.77694" height="6.77694" fill="#F26818"/>
<rect x="342.913" y="326.648" width="6.77694" height="6.77694" fill="#F26818"/>
<rect x="357.822" y="326.648" width="6.77694" height="6.77694" fill="#F26818"/>
<rect x="372.732" y="326.648" width="6.77694" height="6.77694" fill="#F26818"/>
<rect x="387.641" y="326.648" width="6.77694" height="6.77694" fill="#F26818"/>
<rect x="402.55" y="326.648" width="6.77694" height="6.77694" fill="#F26818"/>
<rect x="417.459" y="326.648" width="6.77694" height="6.77694" fill="#F26818"/>
<rect x="432.369" y="326.648" width="6.77694" height="6.77694" fill="#F26818"/>
<rect x="447.278" y="326.648" width="6.77694" height="6.77694" fill="#F26818"/>
<rect x="462.187" y="326.648" width="6.77694" height="6.77694" fill="#F26818"/>
<rect x="477.096" y="326.648" width="6.77694" height="6.77694" fill="#F26818"/>
<rect x="119.274" y="341.558" width="6.77694" height="6.77694" fill="#F26818"/>
<rect x="134.183" y="341.558" width="6.77694" height="6.77694" fill="#F26818"/>
<rect x="149.093" y="341.558" width="6.77694" height="6.77694" fill="#F26818"/>
<rect x="164.002" y="341.558" width="6.77694" height="6.77694" fill="#F26818"/>
<rect x="178.911" y="341.558" width="6.77694" height="6.77694" fill="#F26818"/>
<rect x="193.82" y="341.558" width="6.77694" height="6.77694" fill="#F26818"/>
<rect x="208.73" y="341.558" width="6.77694" height="6.77694" fill="#F26818"/>
<rect x="223.639" y="341.558" width="6.77694" height="6.77694" fill="#F26818"/>
<rect x="238.548" y="341.558" width="6.77694" height="6.77694" fill="#F26818"/>
<rect x="253.457" y="341.558" width="6.77694" height="6.77694" fill="#F26818"/>
<rect x="268.367" y="341.558" width="6.77694" height="6.77694" fill="#F26818"/>
<rect x="283.276" y="341.558" width="6.77694" height="6.77694" fill="#F26818"/>
<rect x="298.185" y="341.558" width="6.77694" height="6.77694" fill="#F26818"/>
<rect x="313.095" y="341.558" width="6.77694" height="6.77694" fill="#F26818"/>
<rect x="328.004" y="341.558" width="6.77694" height="6.77694" fill="#F26818"/>
<rect x="342.913" y="341.558" width="6.77694" height="6.77694" fill="#F26818"/>
<rect x="357.822" y="341.558" width="6.77694" height="6.77694" fill="#F26818"/>
<rect x="372.732" y="341.558" width="6.77694" height="6.77694" fill="#F26818"/>
<rect x="387.641" y="341.558" width="6.77694" height="6.77694" fill="#F26818"/>
<rect x="402.55" y="341.558" width="6.77694" height="6.77694" fill="#F26818"/>
<rect x="417.459" y="341.558" width="6.77694" height="6.77694" fill="#F26818"/>
<rect x="432.369" y="341.558" width="6.77694" height="6.77694" fill="#F26818"/>
<rect x="447.278" y="341.558" width="6.77694" height="6.77694" fill="#F26818"/>
<rect x="462.187" y="341.558" width="6.77694" height="6.77694" fill="#F26818"/>
<rect x="477.096" y="341.558" width="6.77694" height="6.77694" fill="#F26818"/>
<rect x="119.274" y="356.467" width="6.77694" height="6.77694" fill="#F26818"/>
<rect x="134.183" y="356.467" width="6.77694" height="6.77694" fill="#F26818"/>
<rect x="149.093" y="356.467" width="6.77694" height="6.77694" fill="#F26818"/>
<rect x="164.002" y="356.467" width="6.77694" height="6.77694" fill="#F26818"/>
<rect x="178.911" y="356.467" width="6.77694" height="6.77694" fill="#F26818"/>
<rect x="193.82" y="356.467" width="6.77694" height="6.77694" fill="#F26818"/>
<rect x="208.73" y="356.467" width="6.77694" height="6.77694" fill="#F26818"/>
<rect x="223.639" y="356.467" width="6.77694" height="6.77694" fill="#F26818"/>
<rect x="238.548" y="356.467" width="6.77694" height="6.77694" fill="#F26818"/>
<rect x="253.457" y="356.467" width="6.77694" height="6.77694" fill="#F26818"/>
<rect x="268.367" y="356.467" width="6.77694" height="6.77694" fill="#F26818"/>
<rect x="283.276" y="356.467" width="6.77694" height="6.77694" fill="#F26818"/>
<rect x="298.185" y="356.467" width="6.77694" height="6.77694" fill="#F26818"/>
<rect x="313.095" y="356.467" width="6.77694" height="6.77694" fill="#F26818"/>
<rect x="328.004" y="356.467" width="6.77694" height="6.77694" fill="#F26818"/>
<rect x="342.913" y="356.467" width="6.77694" height="6.77694" fill="#F26818"/>
<rect x="357.822" y="356.467" width="6.77694" height="6.77694" fill="#F26818"/>
<rect x="372.732" y="356.467" width="6.77694" height="6.77694" fill="#F26818"/>
<rect x="387.641" y="356.467" width="6.77694" height="6.77694" fill="#F26818"/>
<rect x="402.55" y="356.467" width="6.77694" height="6.77694" fill="#F26818"/>
<rect x="417.459" y="356.467" width="6.77694" height="6.77694" fill="#F26818"/>
<rect x="432.369" y="356.467" width="6.77694" height="6.77694" fill="#F26818"/>
<rect x="447.278" y="356.467" width="6.77694" height="6.77694" fill="#F26818"/>
<rect x="462.187" y="356.467" width="6.77694" height="6.77694" fill="#F26818"/>
<rect x="477.096" y="356.467" width="6.77694" height="6.77694" fill="#F26818"/>
<rect x="119.274" y="371.376" width="6.77694" height="6.77694" fill="#F26818"/>
<rect x="134.183" y="371.376" width="6.77694" height="6.77694" fill="#F26818"/>
<rect x="149.093" y="371.376" width="6.77694" height="6.77694" fill="#F26818"/>
<rect x="164.002" y="371.376" width="6.77694" height="6.77694" fill="#F26818"/>
<rect x="178.911" y="371.376" width="6.77694" height="6.77694" fill="#F26818"/>
<rect x="193.82" y="371.376" width="6.77694" height="6.77694" fill="#F26818"/>
<rect x="208.73" y="371.376" width="6.77694" height="6.77694" fill="#F26818"/>
<rect x="223.639" y="371.376" width="6.77694" height="6.77694" fill="#F26818"/>
<rect x="238.548" y="371.376" width="6.77694" height="6.77694" fill="#F26818"/>
<rect x="253.457" y="371.376" width="6.77694" height="6.77694" fill="#F26818"/>
<rect x="268.367" y="371.376" width="6.77694" height="6.77694" fill="#F26818"/>
<rect x="283.276" y="371.376" width="6.77694" height="6.77694" fill="#F26818"/>
<rect x="298.185" y="371.376" width="6.77694" height="6.77694" fill="#F26818"/>
<rect x="313.095" y="371.376" width="6.77694" height="6.77694" fill="#F26818"/>
<rect x="328.004" y="371.376" width="6.77694" height="6.77694" fill="#F26818"/>
<rect x="342.913" y="371.376" width="6.77694" height="6.77694" fill="#F26818"/>
<rect x="357.822" y="371.376" width="6.77694" height="6.77694" fill="#F26818"/>
<rect x="372.732" y="371.376" width="6.77694" height="6.77694" fill="#F26818"/>
<rect x="387.641" y="371.376" width="6.77694" height="6.77694" fill="#F26818"/>
<rect x="402.55" y="371.376" width="6.77694" height="6.77694" fill="#F26818"/>
<rect x="417.459" y="371.376" width="6.77694" height="6.77694" fill="#F26818"/>
<rect x="432.369" y="371.376" width="6.77694" height="6.77694" fill="#F26818"/>
<rect x="447.278" y="371.376" width="6.77694" height="6.77694" fill="#F26818"/>
<rect x="462.187" y="371.376" width="6.77694" height="6.77694" fill="#F26818"/>
<rect x="477.096" y="371.376" width="6.77694" height="6.77694" fill="#F26818"/>
<rect x="119.274" y="386.285" width="6.77694" height="6.77694" fill="#F26818"/>
<rect x="134.183" y="386.285" width="6.77694" height="6.77694" fill="#F26818"/>
<rect x="149.093" y="386.285" width="6.77694" height="6.77694" fill="#F26818"/>
<rect x="164.002" y="386.285" width="6.77694" height="6.77694" fill="#F26818"/>
<rect x="178.911" y="386.285" width="6.77694" height="6.77694" fill="#F26818"/>
<rect x="193.82" y="386.285" width="6.77694" height="6.77694" fill="#F26818"/>
<rect x="208.73" y="386.285" width="6.77694" height="6.77694" fill="#F26818"/>
<rect x="223.639" y="386.285" width="6.77694" height="6.77694" fill="#F26818"/>
<rect x="238.548" y="386.285" width="6.77694" height="6.77694" fill="#F26818"/>
<rect x="253.457" y="386.285" width="6.77694" height="6.77694" fill="#F26818"/>
<rect x="268.367" y="386.285" width="6.77694" height="6.77694" fill="#F26818"/>
<rect x="283.276" y="386.285" width="6.77694" height="6.77694" fill="#F26818"/>
<rect x="298.185" y="386.285" width="6.77694" height="6.77694" fill="#F26818"/>
<rect x="313.095" y="386.285" width="6.77694" height="6.77694" fill="#F26818"/>
<rect x="328.004" y="386.285" width="6.77694" height="6.77694" fill="#F26818"/>
<rect x="342.913" y="386.285" width="6.77694" height="6.77694" fill="#F26818"/>
<rect x="357.822" y="386.285" width="6.77694" height="6.77694" fill="#F26818"/>
<rect x="372.732" y="386.285" width="6.77694" height="6.77694" fill="#F26818"/>
<rect x="387.641" y="386.285" width="6.77694" height="6.77694" fill="#F26818"/>
<rect x="402.55" y="386.285" width="6.77694" height="6.77694" fill="#F26818"/>
<rect x="417.459" y="386.285" width="6.77694" height="6.77694" fill="#F26818"/>
<rect x="432.369" y="386.285" width="6.77694" height="6.77694" fill="#F26818"/>
<rect x="447.278" y="386.285" width="6.77694" height="6.77694" fill="#F26818"/>
<rect x="462.187" y="386.285" width="6.77694" height="6.77694" fill="#F26818"/>
<rect x="477.096" y="386.285" width="6.77694" height="6.77694" fill="#F26818"/>
<rect x="119.274" y="401.195" width="6.77694" height="6.77694" fill="#F26818"/>
<rect x="134.183" y="401.195" width="6.77694" height="6.77694" fill="#F26818"/>
<rect x="149.093" y="401.195" width="6.77694" height="6.77694" fill="#F26818"/>
<rect x="164.002" y="401.195" width="6.77694" height="6.77694" fill="#F26818"/>
<rect x="178.911" y="401.195" width="6.77694" height="6.77694" fill="#F26818"/>
<rect x="193.82" y="401.195" width="6.77694" height="6.77694" fill="#F26818"/>
<rect x="208.73" y="401.195" width="6.77694" height="6.77694" fill="#F26818"/>
<rect x="223.639" y="401.195" width="6.77694" height="6.77694" fill="#F26818"/>
<rect x="238.548" y="401.195" width="6.77694" height="6.77694" fill="#F26818"/>
<rect x="253.457" y="401.195" width="6.77694" height="6.77694" fill="#F26818"/>
<rect x="268.367" y="401.195" width="6.77694" height="6.77694" fill="#F26818"/>
<rect x="283.276" y="401.195" width="6.77694" height="6.77694" fill="#F26818"/>
<rect x="298.185" y="401.195" width="6.77694" height="6.77694" fill="#F26818"/>
<rect x="313.095" y="401.195" width="6.77694" height="6.77694" fill="#F26818"/>
<rect x="328.004" y="401.195" width="6.77694" height="6.77694" fill="#F26818"/>
<rect x="342.913" y="401.195" width="6.77694" height="6.77694" fill="#F26818"/>
<rect x="357.822" y="401.195" width="6.77694" height="6.77694" fill="#F26818"/>
<rect x="372.732" y="401.195" width="6.77694" height="6.77694" fill="#F26818"/>
<rect x="387.641" y="401.195" width="6.77694" height="6.77694" fill="#F26818"/>
<rect x="402.55" y="401.195" width="6.77694" height="6.77694" fill="#F26818"/>
<rect x="417.459" y="401.195" width="6.77694" height="6.77694" fill="#F26818"/>
<rect x="432.369" y="401.195" width="6.77694" height="6.77694" fill="#F26818"/>
<rect x="447.278" y="401.195" width="6.77694" height="6.77694" fill="#F26818"/>
<rect x="462.187" y="401.195" width="6.77694" height="6.77694" fill="#F26818"/>
<rect x="477.096" y="401.195" width="6.77694" height="6.77694" fill="#F26818"/>
<rect x="119.274" y="416.104" width="6.77694" height="6.77694" fill="#F26818"/>
<rect x="134.183" y="416.104" width="6.77694" height="6.77694" fill="#F26818"/>
<rect x="149.093" y="416.104" width="6.77694" height="6.77694" fill="#F26818"/>
<rect x="164.002" y="416.104" width="6.77694" height="6.77694" fill="#F26818"/>
<rect x="178.911" y="416.104" width="6.77694" height="6.77694" fill="#F26818"/>
<rect x="193.82" y="416.104" width="6.77694" height="6.77694" fill="#F26818"/>
<rect x="208.73" y="416.104" width="6.77694" height="6.77694" fill="#F26818"/>
<rect x="223.639" y="416.104" width="6.77694" height="6.77694" fill="#F26818"/>
<rect x="238.548" y="416.104" width="6.77694" height="6.77694" fill="#F26818"/>
<rect x="253.457" y="416.104" width="6.77694" height="6.77694" fill="#F26818"/>
<rect x="268.367" y="416.104" width="6.77694" height="6.77694" fill="#F26818"/>
<rect x="283.276" y="416.104" width="6.77694" height="6.77694" fill="#F26818"/>
<rect x="298.185" y="416.104" width="6.77694" height="6.77694" fill="#F26818"/>
<rect x="313.095" y="416.104" width="6.77694" height="6.77694" fill="#F26818"/>
<rect x="328.004" y="416.104" width="6.77694" height="6.77694" fill="#F26818"/>
<rect x="342.913" y="416.104" width="6.77694" height="6.77694" fill="#F26818"/>
<rect x="357.822" y="416.104" width="6.77694" height="6.77694" fill="#F26818"/>
<rect x="372.732" y="416.104" width="6.77694" height="6.77694" fill="#F26818"/>
<rect x="387.641" y="416.104" width="6.77694" height="6.77694" fill="#F26818"/>
<rect x="402.55" y="416.104" width="6.77694" height="6.77694" fill="#F26818"/>
<rect x="417.459" y="416.104" width="6.77694" height="6.77694" fill="#F26818"/>
<rect x="432.369" y="416.104" width="6.77694" height="6.77694" fill="#F26818"/>
<rect x="447.278" y="416.104" width="6.77694" height="6.77694" fill="#F26818"/>
<rect x="462.187" y="416.104" width="6.77694" height="6.77694" fill="#F26818"/>
<rect x="477.096" y="416.104" width="6.77694" height="6.77694" fill="#F26818"/>
<rect x="119.274" y="431.013" width="6.77694" height="6.77694" fill="#F26818"/>
<rect x="134.183" y="431.013" width="6.77694" height="6.77694" fill="#F26818"/>
<rect x="149.093" y="431.013" width="6.77694" height="6.77694" fill="#F26818"/>
<rect x="164.002" y="431.013" width="6.77694" height="6.77694" fill="#F26818"/>
<rect x="178.911" y="431.013" width="6.77694" height="6.77694" fill="#F26818"/>
<rect x="193.82" y="431.013" width="6.77694" height="6.77694" fill="#F26818"/>
<rect x="208.73" y="431.013" width="6.77694" height="6.77694" fill="#F26818"/>
<rect x="223.639" y="431.013" width="6.77694" height="6.77694" fill="#F26818"/>
<rect x="238.548" y="431.013" width="6.77694" height="6.77694" fill="#F26818"/>
<rect x="253.457" y="431.013" width="6.77694" height="6.77694" fill="#F26818"/>
<rect x="268.367" y="431.013" width="6.77694" height="6.77694" fill="#F26818"/>
<rect x="283.276" y="431.013" width="6.77694" height="6.77694" fill="#F26818"/>
<rect x="298.185" y="431.013" width="6.77694" height="6.77694" fill="#F26818"/>
<rect x="313.095" y="431.013" width="6.77694" height="6.77694" fill="#F26818"/>
<rect x="328.004" y="431.013" width="6.77694" height="6.77694" fill="#F26818"/>
<rect x="342.913" y="431.013" width="6.77694" height="6.77694" fill="#F26818"/>
<rect x="357.822" y="431.013" width="6.77694" height="6.77694" fill="#F26818"/>
<rect x="372.732" y="431.013" width="6.77694" height="6.77694" fill="#F26818"/>
<rect x="387.641" y="431.013" width="6.77694" height="6.77694" fill="#F26818"/>
<rect x="402.55" y="431.013" width="6.77694" height="6.77694" fill="#F26818"/>
<rect x="417.459" y="431.013" width="6.77694" height="6.77694" fill="#F26818"/>
<rect x="432.369" y="431.013" width="6.77694" height="6.77694" fill="#F26818"/>
<rect x="447.278" y="431.013" width="6.77694" height="6.77694" fill="#F26818"/>
<rect x="462.187" y="431.013" width="6.77694" height="6.77694" fill="#F26818"/>
<rect x="477.096" y="431.013" width="6.77694" height="6.77694" fill="#F26818"/>
<rect x="119.274" y="445.922" width="6.77694" height="6.77694" fill="#F26818"/>
<rect x="134.183" y="445.922" width="6.77694" height="6.77694" fill="#F26818"/>
<rect x="149.093" y="445.922" width="6.77694" height="6.77694" fill="#F26818"/>
<rect x="164.002" y="445.922" width="6.77694" height="6.77694" fill="#F26818"/>
<rect x="178.911" y="445.922" width="6.77694" height="6.77694" fill="#F26818"/>
<rect x="193.82" y="445.922" width="6.77694" height="6.77694" fill="#F26818"/>
<rect x="208.73" y="445.922" width="6.77694" height="6.77694" fill="#F26818"/>
<rect x="223.639" y="445.922" width="6.77694" height="6.77694" fill="#F26818"/>
<rect x="238.548" y="445.922" width="6.77694" height="6.77694" fill="#F26818"/>
<rect x="253.457" y="445.922" width="6.77694" height="6.77694" fill="#F26818"/>
<rect x="268.367" y="445.922" width="6.77694" height="6.77694" fill="#F26818"/>
<rect x="283.276" y="445.922" width="6.77694" height="6.77694" fill="#F26818"/>
<rect x="298.185" y="445.922" width="6.77694" height="6.77694" fill="#F26818"/>
<rect x="313.095" y="445.922" width="6.77694" height="6.77694" fill="#F26818"/>
<rect x="328.004" y="445.922" width="6.77694" height="6.77694" fill="#F26818"/>
<rect x="342.913" y="445.922" width="6.77694" height="6.77694" fill="#F26818"/>
<rect x="357.822" y="445.922" width="6.77694" height="6.77694" fill="#F26818"/>
<rect x="372.732" y="445.922" width="6.77694" height="6.77694" fill="#F26818"/>
<rect x="387.641" y="445.922" width="6.77694" height="6.77694" fill="#F26818"/>
<rect x="402.55" y="445.922" width="6.77694" height="6.77694" fill="#F26818"/>
<rect x="417.459" y="445.922" width="6.77694" height="6.77694" fill="#F26818"/>
<rect x="432.369" y="445.922" width="6.77694" height="6.77694" fill="#F26818"/>
<rect x="447.278" y="445.922" width="6.77694" height="6.77694" fill="#F26818"/>
<rect x="462.187" y="445.922" width="6.77694" height="6.77694" fill="#F26818"/>
<rect x="477.096" y="445.922" width="6.77694" height="6.77694" fill="#F26818"/>
<rect x="119.274" y="460.832" width="6.77694" height="6.77694" fill="#F26818"/>
<rect x="134.183" y="460.832" width="6.77694" height="6.77694" fill="#F26818"/>
<rect x="149.093" y="460.832" width="6.77694" height="6.77694" fill="#F26818"/>
<rect x="164.002" y="460.832" width="6.77694" height="6.77694" fill="#F26818"/>
<rect x="178.911" y="460.832" width="6.77694" height="6.77694" fill="#F26818"/>
<rect x="193.82" y="460.832" width="6.77694" height="6.77694" fill="#F26818"/>
<rect x="208.73" y="460.832" width="6.77694" height="6.77694" fill="#F26818"/>
<rect x="223.639" y="460.832" width="6.77694" height="6.77694" fill="#F26818"/>
<rect x="238.548" y="460.832" width="6.77694" height="6.77694" fill="#F26818"/>
<rect x="253.457" y="460.832" width="6.77694" height="6.77694" fill="#F26818"/>
<rect x="268.367" y="460.832" width="6.77694" height="6.77694" fill="#F26818"/>
<rect x="283.276" y="460.832" width="6.77694" height="6.77694" fill="#F26818"/>
<rect x="298.185" y="460.832" width="6.77694" height="6.77694" fill="#F26818"/>
<rect x="313.095" y="460.832" width="6.77694" height="6.77694" fill="#F26818"/>
<rect x="328.004" y="460.832" width="6.77694" height="6.77694" fill="#F26818"/>
<rect x="342.913" y="460.832" width="6.77694" height="6.77694" fill="#F26818"/>
<rect x="357.822" y="460.832" width="6.77694" height="6.77694" fill="#F26818"/>
<rect x="372.732" y="460.832" width="6.77694" height="6.77694" fill="#F26818"/>
<rect x="387.641" y="460.832" width="6.77694" height="6.77694" fill="#F26818"/>
<rect x="402.55" y="460.832" width="6.77694" height="6.77694" fill="#F26818"/>
<rect x="417.459" y="460.832" width="6.77694" height="6.77694" fill="#F26818"/>
<rect x="432.369" y="460.832" width="6.77694" height="6.77694" fill="#F26818"/>
<rect x="447.278" y="460.832" width="6.77694" height="6.77694" fill="#F26818"/>
<rect x="462.187" y="460.832" width="6.77694" height="6.77694" fill="#F26818"/>
<rect x="477.096" y="460.832" width="6.77694" height="6.77694" fill="#F26818"/>
</g>
<circle opacity="0.5" cx="178.911" cy="105.72" r="105.72" fill="#FF7742"/>
<circle opacity="0.5" cx="56.9263" cy="410.682" r="56.9263" fill="#FF7742"/>
<rect opacity="0.8" x="336.136" y="287.342" width="189.754" height="189.754" fill="#1D6AFF"/>
<path fill-rule="evenodd" clip-rule="evenodd" d="M179.39 230.416H169.776L180.267 240.906V233.413L178.33 231.476L179.39 230.416ZM158.04 230.416H167.655L166.594 231.476L180.267 245.149V252.642L158.04 230.416ZM155.919 230.416H146.305L180.267 264.378V256.885L154.858 231.476L155.919 230.416ZM134.569 230.416H144.183L143.123 231.476L180.267 268.62V276.113L134.569 230.416ZM132.448 230.416H122.833L180.267 287.849V280.356L131.387 231.476L132.448 230.416ZM111.098 230.416H120.712L119.651 231.476L180.267 292.092V299.585L111.098 230.416ZM108.976 230.416H99.3622L180.267 311.32V303.827L107.916 231.476L108.976 230.416ZM87.6264 230.416H97.2407L96.1801 231.476L180.267 315.563V323.056L87.6264 230.416ZM85.505 230.416H84.034V326.648H179.616L84.4444 231.477L85.505 230.416Z" fill="#1D6AFF"/>
<circle cx="498.105" cy="302.929" r="57.0917" stroke="#FFD43C" stroke-width="20"/>
<circle cx="16.9423" cy="488.617" r="16.9423" fill="#F26818"/>
<circle cx="470.942" cy="70.9423" r="16.9423" fill="#F26818"/>
<rect opacity="0.8" x="414.314" y="60.3853" width="130.117" height="486.539" rx="65.0586" transform="rotate(41.5 414.314 60.3853)" fill="#1D6AFF"/>
</svg>
